# xmcd CD database file generated by Grip 3.3.1
# 
# Track frame offsets:
#       150
#       55238
#       93747
#       146808
#       153125
#       158485
#       168263
#       189378
#       203836
#       255284
# 
# Disc length: 3925 seconds
# 
# Revision: 1
# Processed by: cddbd v1.5.2PL0 Copyright (c) Steve Scherf et al.
# Submitted via: Grip 3.3.1
# 
DISCID=7a0f530a
DTITLE=Tristan Keuris - Complete Works [CD2]
DYEAR=2009
DGENRE=Blues
TTITLE0=Sinfonia for orchestra (1972-1974), Rotterdam Philharmonic Orches
TTITLE0=tra, Edo de Waart
TTITLE1=Fantasia for flute (1976), Thies Roorda (fluit)
TTITLE2=Serenade for oboe and orchestra (1974-1976), Frank van Koten (hob
TTITLE2=o), The Brabant Orchestra, Lucas Vis
TTITLE3=I. - Fingerprints for piano (1976), Ralph van Raat (piano)
TTITLE4=II. Pesante - Fingerprints for piano (1976), Ralph van Raat (pian
TTITLE4=o)
TTITLE5=I. Allegro - Concertino for string quartet and bass clarinet (197
TTITLE5=6-77, rev.79), Gaudeamus Quartet, Harry Sparnaay (basklarinet)
TTITLE6=II. Lento - Concertino for string quartet and bass clarinet (1976
TTITLE6=77, rev.79), Gaudeamus Quartet, Harry Sparnaay (basklarinet)
TTITLE7=III. Allegro molto - Concertino for string quartet and bass clari
TTITLE7=net (1976-77, rev.79), Gaudeamus Quartet, Harry Sparnaay (basklar
TTITLE7=inet)
TTITLE8=Sonate for violin and piano (1977), Emmy Verhey (viool), Carlos M
TTITLE8=oerdijk (piano)
TTITLE9=Capricio for 12 windinstruments and double bass (1978), Nederland
TTITLE9=s Radio Chamber Philharmonic, Hans Leenders
EXTD=
EXTT0=
EXTT1=
EXTT2=
EXTT3=
EXTT4=
EXTT5=
EXTT6=
EXTT7=
EXTT8=
EXTT9=
PLAYORDER=
